<svg width="482" height="449" viewBox="0 0 482 449" fill="none" xmlns="http://www.w3.org/2000/svg">
<g id="all">
<g id="table">
<path id="Vector" d="M482 223.55V425.65C482 431.772 479.568 437.643 475.24 441.973C470.912 446.303 465.042 448.737 458.92 448.74H321.89C318.858 448.739 315.857 448.142 313.056 446.981C310.255 445.82 307.711 444.119 305.568 441.975C303.424 439.831 301.725 437.286 300.565 434.485C299.406 431.684 298.809 428.682 298.81 425.65V223.55C298.809 220.519 299.406 217.517 300.566 214.717C301.725 211.917 303.426 209.372 305.569 207.229C307.712 205.086 310.257 203.385 313.057 202.226C315.857 201.066 318.859 200.469 321.89 200.47H353.06V200.54C353.059 202.794 353.503 205.025 354.365 207.107C355.227 209.19 356.491 211.082 358.085 212.675C359.678 214.269 361.57 215.533 363.653 216.395C365.735 217.257 367.966 217.701 370.22 217.7H410.59C412.844 217.701 415.075 217.257 417.157 216.395C419.24 215.533 421.132 214.269 422.725 212.675C424.319 211.082 425.583 209.19 426.445 207.107C427.307 205.025 427.751 202.794 427.75 200.54V200.47H458.92C465.041 200.471 470.911 202.902 475.239 207.231C479.568 211.559 481.999 217.429 482 223.55ZM362.92 351.5V318.52H329.95V351.5H362.92Z" fill="#F8EC7D"/>
<path id="Vector_2" d="M353.06 200.1V199.05C353.059 196.796 353.503 194.565 354.365 192.483C355.227 190.4 356.491 188.508 358.085 186.915C359.678 185.321 361.57 184.057 363.653 183.195C365.735 182.333 367.966 181.889 370.22 181.89H410.59C412.844 181.889 415.075 182.333 417.157 183.195C419.24 184.057 421.132 185.321 422.725 186.915C424.319 188.508 425.583 190.4 426.445 192.483C427.307 194.565 427.751 196.796 427.75 199.05V200.17C427.751 202.424 427.307 204.655 426.445 206.737C425.583 208.82 424.319 210.712 422.725 212.305C421.132 213.899 419.24 215.163 417.157 216.025C415.075 216.887 412.844 217.331 410.59 217.33H370.22C367.966 217.331 365.735 216.887 363.653 216.025C361.57 215.163 359.678 213.899 358.085 212.305C356.491 210.712 355.227 208.82 354.365 206.737C353.503 204.655 353.059 202.424 353.06 200.17V200.1Z" fill="#6FE3FF"/>
<path id="Vector_3" d="M450.86 405.76H406.89C405.033 405.76 403.253 405.023 401.94 403.71C400.627 402.397 399.89 400.617 399.89 398.76C399.89 396.903 400.627 395.123 401.94 393.81C403.253 392.497 405.033 391.76 406.89 391.76H450.86C452.716 391.76 454.497 392.497 455.81 393.81C457.123 395.123 457.86 396.903 457.86 398.76C457.86 400.617 457.123 402.397 455.81 403.71C454.497 405.023 452.716 405.76 450.86 405.76Z" fill="#E48E66"/>
<path id="Vector_4" d="M362.92 318.52H329.95V351.5H362.92V318.52Z" fill="#6FE3FF"/>
<path id="Vector_5" d="M337.28 422.24H329.95C328.093 422.24 326.313 421.503 325 420.19C323.687 418.877 322.95 417.097 322.95 415.24V382.27C322.95 380.413 323.687 378.633 325 377.32C326.313 376.007 328.093 375.27 329.95 375.27H362.92C364.777 375.27 366.557 376.007 367.87 377.32C369.183 378.633 369.92 380.413 369.92 382.27V389.01C369.937 389.929 369.773 390.843 369.437 391.699C369.101 392.554 368.6 393.336 367.962 393.998C367.324 394.66 366.562 395.19 365.719 395.557C364.876 395.925 363.969 396.123 363.05 396.14C362.131 396.157 361.217 395.993 360.361 395.657C359.506 395.321 358.724 394.82 358.062 394.182C357.4 393.544 356.87 392.782 356.503 391.939C356.135 391.096 355.937 390.189 355.92 389.27H336.95V408.24H337.28C339.137 408.24 340.917 408.977 342.23 410.29C343.542 411.603 344.28 413.383 344.28 415.24C344.28 417.097 343.542 418.877 342.23 420.19C340.917 421.503 339.137 422.24 337.28 422.24Z" fill="#6FE3FF"/>
<path id="crr1" d="M358.54 422.24C357.621 422.241 356.711 422.061 355.862 421.71C355.013 421.358 354.242 420.843 353.593 420.192L342.4 409.012C341.75 408.362 341.234 407.59 340.883 406.741C340.531 405.892 340.35 404.981 340.35 404.062C340.35 403.143 340.531 402.232 340.883 401.383C341.234 400.534 341.75 399.762 342.4 399.112C343.05 398.462 343.822 397.946 344.671 397.595C345.52 397.243 346.431 397.062 347.35 397.062C348.269 397.062 349.18 397.243 350.029 397.595C350.878 397.946 351.65 398.462 352.3 399.112L358.541 405.347L379.041 384.847C379.691 384.197 380.463 383.681 381.312 383.329C382.161 382.978 383.072 382.797 383.991 382.797C384.91 382.797 385.821 382.978 386.67 383.329C387.519 383.681 388.291 384.197 388.941 384.847C389.591 385.497 390.107 386.269 390.458 387.118C390.81 387.967 390.991 388.878 390.991 389.797C390.991 390.716 390.81 391.627 390.458 392.476C390.107 393.325 389.591 394.097 388.941 394.747L363.491 420.197C362.841 420.847 362.069 421.362 361.219 421.712C360.37 422.063 359.459 422.242 358.54 422.24Z" fill="#2561A1"/>
<path id="crr" d="M358.54 292.99C357.621 292.991 356.711 292.811 355.862 292.46C355.013 292.108 354.242 291.593 353.593 290.942L342.4 279.762C341.75 279.112 341.234 278.34 340.883 277.491C340.531 276.642 340.35 275.731 340.35 274.812C340.35 273.893 340.531 272.982 340.883 272.133C341.234 271.284 341.75 270.512 342.4 269.862C343.05 269.212 343.822 268.696 344.671 268.345C345.52 267.993 346.431 267.812 347.35 267.812C348.269 267.812 349.18 267.993 350.029 268.345C350.878 268.696 351.65 269.212 352.3 269.862L358.541 276.097L379.041 255.597C379.691 254.947 380.463 254.431 381.312 254.079C382.161 253.728 383.072 253.547 383.991 253.547C384.91 253.547 385.821 253.728 386.67 254.079C387.519 254.431 388.291 254.947 388.941 255.597C389.591 256.247 390.107 257.019 390.458 257.868C390.81 258.717 390.991 259.628 390.991 260.547C390.991 261.466 390.81 262.377 390.458 263.226C390.107 264.075 389.591 264.847 388.941 265.497L363.491 290.947C362.841 291.597 362.069 292.112 361.219 292.462C360.37 292.813 359.459 292.992 358.54 292.99Z" fill="#2561A1"/>
<path id="Vector_6" d="M337.28 294.01H329.95C328.093 294.01 326.313 293.273 325 291.96C323.687 290.647 322.95 288.867 322.95 287.01V254.03C322.95 252.173 323.687 250.393 325 249.08C326.313 247.768 328.093 247.03 329.95 247.03H362.92C364.777 247.03 366.557 247.768 367.87 249.08C369.183 250.393 369.92 252.173 369.92 254.03V258.74C369.922 260.396 369.336 262 368.266 263.265C367.197 264.53 365.714 265.375 364.081 265.649C362.448 265.924 360.77 265.611 359.346 264.765C357.921 263.919 356.843 262.596 356.303 261.03H336.95V280.01H337.28C339.137 280.01 340.917 280.747 342.23 282.06C343.542 283.373 344.28 285.153 344.28 287.01C344.28 288.867 343.542 290.647 342.23 291.96C340.917 293.273 339.137 294.01 337.28 294.01Z" fill="#6FE3FF"/>
<path id="Vector_7" d="M450.86 341.64H406.89C405.033 341.64 403.253 340.903 401.94 339.59C400.627 338.277 399.89 336.497 399.89 334.64C399.89 332.783 400.627 331.003 401.94 329.69C403.253 328.377 405.033 327.64 406.89 327.64H450.86C452.716 327.64 454.497 328.377 455.81 329.69C457.123 331.003 457.86 332.783 457.86 334.64C457.86 336.497 457.123 338.277 455.81 339.59C454.497 340.903 452.716 341.64 450.86 341.64Z" fill="#E48E66"/>
<path id="Vector_8" d="M450.86 277.52H406.89C405.033 277.52 403.253 276.783 401.94 275.47C400.627 274.157 399.89 272.377 399.89 270.52C399.89 268.663 400.627 266.883 401.94 265.57C403.253 264.257 405.033 263.52 406.89 263.52H450.86C452.716 263.52 454.497 264.257 455.81 265.57C457.123 266.883 457.86 268.663 457.86 270.52C457.86 272.377 457.123 274.157 455.81 275.47C454.497 276.783 452.716 277.52 450.86 277.52Z" fill="#E48E66"/>
</g>
<g id="box">
<path id="Vector_9" d="M187.65 216.67L91.99 161.44L279.62 53.1H279.63L375.29 108.34L187.65 216.67Z" fill="#AF593C"/>
<path id="Vector_10" d="M279.62 53.1L91.99 161.44L0.019989 108.34L187.65 0L279.62 53.1Z" fill="#C16752"/>
<path id="Vector_11" d="M187.65 216.67V433.37L0 325.03V108.35L0.0200005 108.34L91.99 161.44L187.65 216.67Z" fill="#E48E66"/>
<path id="Vector_12" d="M375.31 108.35V180.26H368.22C365.966 180.259 363.735 180.703 361.653 181.565C359.57 182.427 357.678 183.691 356.085 185.285C354.491 186.878 353.227 188.77 352.365 190.853C351.503 192.935 351.059 195.166 351.06 197.42V198.47H319.89C316.859 198.469 313.857 199.066 311.057 200.226C308.257 201.385 305.712 203.086 303.569 205.229C301.426 207.372 299.725 209.917 298.566 212.717C297.406 215.517 296.809 218.519 296.81 221.55V370.35L187.65 433.37V216.67L375.29 108.34L375.31 108.35Z" fill="#C16752"/>
</g>
</g>
</svg>
