<svg width="512" height="512" viewBox="0 0 512 512" fill="none" xmlns="http://www.w3.org/2000/svg">
<g id="box 1">
<g id="all">
<g id="table">
<path id="Vector" d="M496 254.55V456.65C496 462.772 493.568 468.643 489.24 472.973C484.912 477.303 479.042 479.737 472.92 479.74H335.89C332.858 479.739 329.857 479.142 327.056 477.981C324.255 476.82 321.711 475.119 319.568 472.975C317.424 470.831 315.725 468.286 314.565 465.485C313.406 462.684 312.809 459.682 312.81 456.65V254.55C312.809 251.519 313.406 248.517 314.566 245.717C315.725 242.917 317.426 240.372 319.569 238.229C321.712 236.086 324.257 234.385 327.057 233.226C329.857 232.066 332.859 231.469 335.89 231.47H367.06V231.54C367.059 233.794 367.503 236.025 368.365 238.107C369.227 240.19 370.491 242.082 372.085 243.675C373.678 245.269 375.57 246.533 377.653 247.395C379.735 248.257 381.966 248.701 384.22 248.7H424.59C426.844 248.701 429.075 248.257 431.157 247.395C433.24 246.533 435.132 245.269 436.725 243.675C438.319 242.082 439.583 240.19 440.445 238.107C441.307 236.025 441.751 233.794 441.75 231.54V231.47H472.92C479.041 231.471 484.911 233.902 489.239 238.231C493.568 242.559 495.999 248.429 496 254.55ZM376.92 382.5V349.52H343.95V382.5H376.92Z" fill="#F8EC7D"/>
<path id="Vector_2" d="M367.06 231.1V230.05C367.059 227.796 367.503 225.565 368.365 223.483C369.227 221.4 370.491 219.508 372.085 217.915C373.678 216.321 375.57 215.057 377.653 214.195C379.735 213.333 381.966 212.889 384.22 212.89H424.59C426.844 212.889 429.075 213.333 431.157 214.195C433.24 215.057 435.132 216.321 436.725 217.915C438.319 219.508 439.583 221.4 440.445 223.483C441.307 225.565 441.751 227.796 441.75 230.05V231.17C441.751 233.424 441.307 235.655 440.445 237.737C439.583 239.82 438.319 241.712 436.725 243.305C435.132 244.899 433.24 246.163 431.157 247.025C429.075 247.887 426.844 248.331 424.59 248.33H384.22C381.966 248.331 379.735 247.887 377.653 247.025C375.57 246.163 373.678 244.899 372.085 243.305C370.491 241.712 369.227 239.82 368.365 237.737C367.503 235.655 367.059 233.424 367.06 231.17V231.1Z" fill="#6FE3FF"/>
<path id="Vector_3" d="M464.86 436.76H420.89C419.033 436.76 417.253 436.023 415.94 434.71C414.627 433.397 413.89 431.617 413.89 429.76C413.89 427.903 414.627 426.123 415.94 424.81C417.253 423.497 419.033 422.76 420.89 422.76H464.86C466.717 422.76 468.497 423.497 469.81 424.81C471.123 426.123 471.86 427.903 471.86 429.76C471.86 431.617 471.123 433.397 469.81 434.71C468.497 436.023 466.717 436.76 464.86 436.76Z" fill="#E48E66"/>
<path id="Vector_4" d="M376.92 349.52H343.95V382.5H376.92V349.52Z" fill="#6FE3FF"/>
<path id="Vector_5" d="M351.28 453.24H343.95C342.093 453.24 340.313 452.503 339 451.19C337.687 449.877 336.95 448.097 336.95 446.24V413.27C336.95 411.413 337.687 409.633 339 408.32C340.313 407.007 342.093 406.27 343.95 406.27H376.92C378.777 406.27 380.557 407.007 381.87 408.32C383.183 409.633 383.92 411.413 383.92 413.27V420.01C383.937 420.929 383.773 421.843 383.437 422.699C383.101 423.554 382.6 424.336 381.962 424.998C381.324 425.66 380.562 426.19 379.719 426.557C378.876 426.925 377.969 427.123 377.05 427.14C376.131 427.157 375.217 426.993 374.361 426.657C373.506 426.321 372.724 425.82 372.062 425.182C371.4 424.544 370.87 423.782 370.503 422.939C370.135 422.096 369.937 421.189 369.92 420.27H350.95V439.24H351.28C353.137 439.24 354.917 439.977 356.23 441.29C357.542 442.603 358.28 444.383 358.28 446.24C358.28 448.097 357.542 449.877 356.23 451.19C354.917 452.503 353.137 453.24 351.28 453.24V453.24Z" fill="#6FE3FF"/>
<path id="Vector_6" d="M351.28 325.01H343.95C342.093 325.01 340.313 324.273 339 322.96C337.687 321.647 336.95 319.867 336.95 318.01V285.03C336.95 283.173 337.687 281.393 339 280.08C340.313 278.768 342.093 278.03 343.95 278.03H376.92C378.777 278.03 380.557 278.768 381.87 280.08C383.183 281.393 383.92 283.173 383.92 285.03V289.74C383.922 291.396 383.336 293 382.266 294.265C381.197 295.53 379.714 296.375 378.081 296.649C376.448 296.924 374.77 296.611 373.346 295.765C371.921 294.919 370.843 293.596 370.303 292.03H350.95V311.01H351.28C353.137 311.01 354.917 311.747 356.23 313.06C357.542 314.373 358.28 316.153 358.28 318.01C358.28 319.867 357.542 321.647 356.23 322.96C354.917 324.273 353.137 325.01 351.28 325.01V325.01Z" fill="#6FE3FF"/>
<path id="Vector_7" d="M464.86 372.64H420.89C419.033 372.64 417.253 371.903 415.94 370.59C414.627 369.277 413.89 367.497 413.89 365.64C413.89 363.783 414.627 362.003 415.94 360.69C417.253 359.377 419.033 358.64 420.89 358.64H464.86C466.717 358.64 468.497 359.377 469.81 360.69C471.123 362.003 471.86 363.783 471.86 365.64C471.86 367.497 471.123 369.277 469.81 370.59C468.497 371.903 466.717 372.64 464.86 372.64V372.64Z" fill="#E48E66"/>
<path id="Vector_8" d="M464.86 308.52H420.89C419.033 308.52 417.253 307.783 415.94 306.47C414.627 305.157 413.89 303.377 413.89 301.52C413.89 299.663 414.627 297.883 415.94 296.57C417.253 295.257 419.033 294.52 420.89 294.52H464.86C466.717 294.52 468.497 295.257 469.81 296.57C471.123 297.883 471.86 299.663 471.86 301.52C471.86 303.377 471.123 305.157 469.81 306.47C468.497 307.783 466.717 308.52 464.86 308.52Z" fill="#E48E66"/>
</g>
<g id="box">
<path id="Vector_9" d="M201.65 247.67L105.99 192.44L293.62 84.1H293.63L389.29 139.34L201.65 247.67Z" fill="#AF593C"/>
<path id="Vector_10" d="M293.62 84.1L105.99 192.44L14.02 139.34L201.65 31L293.62 84.1Z" fill="#C16752"/>
<path id="Vector_11" d="M201.65 247.67V464.37L14 356.03V139.35L14.02 139.34L105.99 192.44L201.65 247.67Z" fill="#E48E66"/>
<path id="Vector_12" d="M389.31 139.35V211.26H382.22C379.966 211.259 377.735 211.703 375.653 212.565C373.57 213.427 371.678 214.691 370.085 216.285C368.491 217.878 367.227 219.77 366.365 221.853C365.503 223.935 365.059 226.166 365.06 228.42V229.47H333.89C330.859 229.469 327.857 230.066 325.057 231.226C322.257 232.385 319.712 234.086 317.569 236.229C315.426 238.372 313.725 240.917 312.566 243.717C311.406 246.517 310.809 249.519 310.81 252.55V401.35L201.65 464.37V247.67L389.29 139.34L389.31 139.35Z" fill="#C16752"/>
</g>
<g id="c1">
<path id="c2" d="M372.54 323.99C371.621 323.991 370.711 323.811 369.862 323.46C369.013 323.108 368.242 322.593 367.593 321.942L356.4 310.762C355.75 310.112 355.234 309.34 354.883 308.491C354.531 307.642 354.35 306.731 354.35 305.812C354.35 304.893 354.531 303.982 354.883 303.133C355.234 302.284 355.75 301.512 356.4 300.862C357.05 300.212 357.822 299.696 358.671 299.345C359.52 298.993 360.431 298.812 361.35 298.812C362.269 298.812 363.18 298.993 364.029 299.345C364.878 299.696 365.65 300.212 366.3 300.862L372.541 307.097L393.041 286.597C393.691 285.947 394.463 285.431 395.312 285.079C396.161 284.728 397.072 284.547 397.991 284.547C398.91 284.547 399.821 284.728 400.67 285.079C401.519 285.431 402.291 285.947 402.941 286.597C403.591 287.247 404.107 288.019 404.458 288.868C404.81 289.717 404.991 290.628 404.991 291.547C404.991 292.466 404.81 293.377 404.458 294.226C404.107 295.075 403.591 295.847 402.941 296.497L377.491 321.947C376.841 322.597 376.069 323.112 375.219 323.462C374.37 323.813 373.459 323.992 372.54 323.99Z" fill="#2561A1"/>
</g>
<g id="c2_2">
<path id="c1_2" d="M372.54 453.24C371.621 453.241 370.711 453.061 369.862 452.71C369.013 452.358 368.242 451.843 367.593 451.192L356.4 440.012C355.75 439.362 355.234 438.59 354.883 437.741C354.531 436.892 354.35 435.981 354.35 435.062C354.35 434.143 354.531 433.232 354.883 432.383C355.234 431.534 355.75 430.762 356.4 430.112C357.05 429.462 357.822 428.946 358.671 428.595C359.52 428.243 360.431 428.062 361.35 428.062C362.269 428.062 363.18 428.243 364.029 428.595C364.878 428.946 365.65 429.462 366.3 430.112L372.541 436.347L393.041 415.847C393.691 415.197 394.463 414.681 395.312 414.329C396.161 413.978 397.072 413.797 397.991 413.797C398.91 413.797 399.821 413.978 400.67 414.329C401.519 414.681 402.291 415.197 402.941 415.847C403.591 416.497 404.107 417.269 404.458 418.118C404.81 418.967 404.991 419.878 404.991 420.797C404.991 421.716 404.81 422.627 404.458 423.476C404.107 424.325 403.591 425.097 402.941 425.747L377.491 451.197C376.841 451.847 376.069 452.362 375.219 452.712C374.37 453.063 373.459 453.242 372.54 453.24V453.24Z" fill="#2561A1"/>
</g>
</g>
</g>
</svg>
