<svg width="51" height="41" viewBox="0 0 51 41" fill="none" xmlns="http://www.w3.org/2000/svg">
<g id="c2">
<path id="c1" d="M18.54 40.24C17.6211 40.2415 16.711 40.0613 15.8621 39.7098C15.0131 39.3583 14.2419 38.8425 13.593 38.192L2.39999 27.012C1.74995 26.362 1.23431 25.5902 0.882507 24.7409C0.530706 23.8916 0.34964 22.9813 0.34964 22.062C0.34964 21.1427 0.530706 20.2324 0.882507 19.3831C1.23431 18.5338 1.74995 17.762 2.39999 17.112C3.05004 16.462 3.82176 15.9463 4.67108 15.5945C5.5204 15.2427 6.43071 15.0616 7.35001 15.0616C8.26931 15.0616 9.17961 15.2427 10.0289 15.5945C10.8783 15.9463 11.6499 16.462 12.3 17.112L18.541 23.347L39.041 2.84698C39.691 2.19694 40.4628 1.6813 41.3121 1.3295C42.1614 0.977697 43.0717 0.796631 43.991 0.796631C44.9103 0.796631 45.8206 0.977697 46.6699 1.3295C47.5192 1.6813 48.291 2.19694 48.941 2.84698C49.5911 3.49703 50.1067 4.26875 50.4585 5.11807C50.8103 5.9674 50.9914 6.8777 50.9914 7.797C50.9914 8.7163 50.8103 9.6266 50.4585 10.4759C50.1067 11.3252 49.5911 12.097 48.941 12.747L23.491 38.197C22.8409 38.8468 22.0689 39.3617 21.2193 39.7123C20.3697 40.0629 19.4591 40.2423 18.54 40.24V40.24Z" fill="#2561A1"/>
</g>
</svg>
