<svg width="184" height="268" viewBox="0 0 184 268" fill="none" xmlns="http://www.w3.org/2000/svg">
<g id="table">
<path id="Vector" d="M184 42.55V244.65C184 250.772 181.568 256.643 177.24 260.973C172.912 265.303 167.042 267.737 160.92 267.74H23.89C20.8584 267.739 17.8566 267.142 15.056 265.981C12.2554 264.82 9.7108 263.119 7.5676 260.975C5.4244 258.831 3.72454 256.286 2.56506 253.485C1.40559 250.684 0.80921 247.682 0.809998 244.65V42.55C0.809473 39.5189 1.4061 36.5175 2.5658 33.717C3.72549 30.9166 5.42554 28.3721 7.56882 26.2288C9.7121 24.0855 12.2566 22.3855 15.057 21.2258C17.8575 20.0661 20.859 19.4695 23.89 19.47H55.06V19.54C55.0595 21.7936 55.503 24.0253 56.3651 26.1075C57.2273 28.1897 58.4913 30.0816 60.0849 31.6751C61.6784 33.2687 63.5703 34.5327 65.6525 35.3948C67.7347 36.257 69.9664 36.7005 72.22 36.7H112.59C114.844 36.7005 117.075 36.257 119.157 35.3948C121.24 34.5327 123.132 33.2687 124.725 31.6751C126.319 30.0816 127.583 28.1897 128.445 26.1075C129.307 24.0253 129.751 21.7936 129.75 19.54V19.47H160.92C167.041 19.4705 172.911 21.9023 177.239 26.2306C181.568 30.5588 183.999 36.429 184 42.55ZM64.92 170.5V137.52H31.95V170.5H64.92Z" fill="#F8EC7D"/>
<path id="Vector_2" d="M55.06 19.1V18.05C55.0595 15.7964 55.503 13.5647 56.3651 11.4825C57.2273 9.40034 58.4913 7.50843 60.0849 5.91487C61.6784 4.32131 63.5703 3.05734 65.6525 2.19516C67.7347 1.33298 69.9664 0.889474 72.22 0.89H112.59C114.844 0.889474 117.075 1.33298 119.157 2.19516C121.24 3.05734 123.132 4.32131 124.725 5.91487C126.319 7.50843 127.583 9.40034 128.445 11.4825C129.307 13.5647 129.751 15.7964 129.75 18.05V19.17C129.751 21.4236 129.307 23.6553 128.445 25.7375C127.583 27.8197 126.319 29.7116 124.725 31.3051C123.132 32.8987 121.24 34.1627 119.157 35.0248C117.075 35.887 114.844 36.3305 112.59 36.33H72.22C69.9664 36.3305 67.7347 35.887 65.6525 35.0248C63.5703 34.1627 61.6784 32.8987 60.0849 31.3051C58.4913 29.7116 57.2273 27.8197 56.3651 25.7375C55.503 23.6553 55.0595 21.4236 55.06 19.17V19.1Z" fill="#6FE3FF"/>
<path id="Vector_3" d="M152.86 224.76H108.89C107.033 224.76 105.253 224.023 103.94 222.71C102.627 221.397 101.89 219.617 101.89 217.76C101.89 215.903 102.627 214.123 103.94 212.81C105.253 211.497 107.033 210.76 108.89 210.76H152.86C154.717 210.76 156.497 211.497 157.81 212.81C159.123 214.123 159.86 215.903 159.86 217.76C159.86 219.617 159.123 221.397 157.81 222.71C156.497 224.023 154.717 224.76 152.86 224.76Z" fill="#E48E66"/>
<path id="Vector_4" d="M64.92 137.52H31.95V170.5H64.92V137.52Z" fill="#6FE3FF"/>
<path id="Vector_5" d="M39.28 241.24H31.95C30.0935 241.24 28.313 240.503 27.0002 239.19C25.6875 237.877 24.95 236.097 24.95 234.24V201.27C24.95 199.413 25.6875 197.633 27.0002 196.32C28.313 195.007 30.0935 194.27 31.95 194.27H64.92C66.7765 194.27 68.557 195.007 69.8698 196.32C71.1825 197.633 71.92 199.413 71.92 201.27V208.01C71.9371 208.929 71.7729 209.843 71.4369 210.699C71.1009 211.554 70.5996 212.336 69.9617 212.998C69.3237 213.66 68.5616 214.19 67.7189 214.557C66.8762 214.925 65.9692 215.123 65.05 215.14C64.1307 215.157 63.2171 214.993 62.3613 214.657C61.5055 214.321 60.7242 213.82 60.0622 213.182C59.4001 212.544 58.8701 211.782 58.5026 210.939C58.135 210.096 57.9371 209.189 57.92 208.27H38.95V227.24H39.28C41.1365 227.24 42.917 227.977 44.2297 229.29C45.5425 230.603 46.28 232.383 46.28 234.24C46.28 236.097 45.5425 237.877 44.2297 239.19C42.917 240.503 41.1365 241.24 39.28 241.24V241.24Z" fill="#6FE3FF"/>
<path id="crr1" d="M60.54 241.24C59.6211 241.241 58.711 241.061 57.8621 240.71C57.0131 240.358 56.2419 239.843 55.593 239.192L44.4 228.012C43.75 227.362 43.2343 226.59 42.8825 225.741C42.5307 224.892 42.3496 223.981 42.3496 223.062C42.3496 222.143 42.5307 221.232 42.8825 220.383C43.2343 219.534 43.75 218.762 44.4 218.112C45.05 217.462 45.8218 216.946 46.6711 216.595C47.5204 216.243 48.4307 216.062 49.35 216.062C50.2693 216.062 51.1796 216.243 52.0289 216.595C52.8783 216.946 53.6499 217.462 54.3 218.112L60.541 224.347L81.041 203.847C81.691 203.197 82.4628 202.681 83.3121 202.329C84.1614 201.978 85.0717 201.797 85.991 201.797C86.9103 201.797 87.8206 201.978 88.6699 202.329C89.5192 202.681 90.291 203.197 90.941 203.847C91.5911 204.497 92.1067 205.269 92.4585 206.118C92.8103 206.967 92.9914 207.878 92.9914 208.797C92.9914 209.716 92.8103 210.627 92.4585 211.476C92.1067 212.325 91.5911 213.097 90.941 213.747L65.491 239.197C64.8409 239.847 64.0689 240.362 63.2193 240.712C62.3697 241.063 61.4591 241.242 60.54 241.24V241.24Z" fill="#2561A1"/>
<path id="crr" d="M60.54 111.99C59.6211 111.991 58.711 111.811 57.8621 111.46C57.0131 111.108 56.2419 110.593 55.593 109.942L44.4 98.762C43.75 98.112 43.2343 97.3402 42.8825 96.4909C42.5307 95.6416 42.3496 94.7313 42.3496 93.812C42.3496 92.8927 42.5307 91.9824 42.8825 91.1331C43.2343 90.2838 43.75 89.512 44.4 88.862C45.05 88.212 45.8218 87.6963 46.6711 87.3445C47.5204 86.9927 48.4307 86.8116 49.35 86.8116C50.2693 86.8116 51.1796 86.9927 52.0289 87.3445C52.8783 87.6963 53.6499 88.212 54.3 88.862L60.541 95.097L81.041 74.597C81.691 73.9469 82.4628 73.4313 83.3121 73.0795C84.1614 72.7277 85.0717 72.5466 85.991 72.5466C86.9103 72.5466 87.8206 72.7277 88.6699 73.0795C89.5192 73.4313 90.291 73.9469 90.941 74.597C91.5911 75.247 92.1067 76.0188 92.4585 76.8681C92.8103 77.7174 92.9914 78.6277 92.9914 79.547C92.9914 80.4663 92.8103 81.3766 92.4585 82.2259C92.1067 83.0752 91.5911 83.847 90.941 84.497L65.491 109.947C64.8409 110.597 64.0689 111.112 63.2193 111.462C62.3697 111.813 61.4591 111.992 60.54 111.99Z" fill="#2561A1"/>
<path id="Vector_6" d="M39.28 113.01H31.95C30.0935 113.01 28.313 112.273 27.0002 110.96C25.6875 109.647 24.95 107.867 24.95 106.01V73.03C24.95 71.1735 25.6875 69.393 27.0002 68.0803C28.313 66.7675 30.0935 66.03 31.95 66.03H64.92C66.7765 66.03 68.557 66.7675 69.8698 68.0803C71.1825 69.393 71.92 71.1735 71.92 73.03V77.74C71.9215 79.3963 71.3356 80.9995 70.2665 82.2646C69.1974 83.5297 67.7143 84.3747 66.0809 84.6494C64.4475 84.924 62.7696 84.6107 61.3455 83.7649C59.9214 82.9191 58.8434 81.5957 58.303 80.03H38.95V99.01H39.28C41.1365 99.01 42.917 99.7475 44.2297 101.06C45.5425 102.373 46.28 104.153 46.28 106.01C46.28 107.867 45.5425 109.647 44.2297 110.96C42.917 112.273 41.1365 113.01 39.28 113.01V113.01Z" fill="#6FE3FF"/>
<path id="Vector_7" d="M152.86 160.64H108.89C107.033 160.64 105.253 159.903 103.94 158.59C102.627 157.277 101.89 155.497 101.89 153.64C101.89 151.783 102.627 150.003 103.94 148.69C105.253 147.377 107.033 146.64 108.89 146.64H152.86C154.717 146.64 156.497 147.377 157.81 148.69C159.123 150.003 159.86 151.783 159.86 153.64C159.86 155.497 159.123 157.277 157.81 158.59C156.497 159.903 154.717 160.64 152.86 160.64V160.64Z" fill="#E48E66"/>
<path id="Vector_8" d="M152.86 96.52H108.89C107.033 96.52 105.253 95.7825 103.94 94.4698C102.627 93.157 101.89 91.3765 101.89 89.52C101.89 87.6635 102.627 85.883 103.94 84.5703C105.253 83.2575 107.033 82.52 108.89 82.52H152.86C154.717 82.52 156.497 83.2575 157.81 84.5703C159.123 85.883 159.86 87.6635 159.86 89.52C159.86 91.3765 159.123 93.157 157.81 94.4698C156.497 95.7825 154.717 96.52 152.86 96.52Z" fill="#E48E66"/>
</g>
</svg>
